# xmcd
#
# Track frame offsets: 
#        150
#        18665
#        41030
#        56275
#        77367
#        103825
#        121352
#        146470
#        166872
#        188527
#        203890
#        228157
#
# Disc length: 3437 seconds
#
# Revision: 0
# Processed by: cddbd v1.5.1PL0 Copyright (c) Steve Scherf et al.
# Submitted via: ExactAudioCopy v0.95a5
#
DISCID=920d6b0c
DTITLE=Drew Womack - Drew Womack
DYEAR=2004
DGENRE=Country
TTITLE0=Hey Daisy
TTITLE1=Any Love at All
TTITLE2=Premium Gasoline
TTITLE3=That's Just Me
TTITLE4=Leaving October
TTITLE5=To Her and Back
TTITLE6=Fastest Way to Texas
TTITLE7=Waiting' on a Bullet
TTITLE8=Devil's Working Overtime
TTITLE9=Fine Art of Failure
TTITLE10=Tearin' It Up Tonight
TTITLE11=Melancholy Cafe
EXTD=
EXTT0=
EXTT1=
EXTT2=
EXTT3=
EXTT4=
EXTT5=
EXTT6=
EXTT7=
EXTT8=
EXTT9=
EXTT10=
EXTT11=
PLAYORDER=
